<svg xmlns="http://www.w3.org/2000/svg" width="430" height="430" style="width:100%;height:100%;transform:translate3d(0,0,0);content-visibility:visible" viewBox="0 0 430 430"><defs><clipPath id="a"><path d="M0 0h430v430H0z"/></clipPath><clipPath id="g"><path d="M0 0h430v430H0z"/></clipPath><clipPath id="k"><path d="M0 0h430v430H0z"/></clipPath><clipPath id="j"><path d="M0 0h430v430H0z"/></clipPath><clipPath id="i"><path d="M0 0h430v430H0z"/></clipPath><clipPath id="h"><path d="M0 0h430v430H0z"/></clipPath><clipPath id="b"><path d="M0 0h430v430H0z"/></clipPath><clipPath id="f"><path d="M0 0h430v430H0z"/></clipPath><clipPath id="e"><path d="M0 0h430v430H0z"/></clipPath><clipPath id="d"><path d="M0 0h430v430H0z"/></clipPath><clipPath id="c"><path d="M0 0h430v430H0z"/></clipPath></defs><g fill="none" clip-path="url(#a)"><g clip-path="url(#b)" style="display:none"><g clip-path="url(#c)" style="display:none"><path class="primary" style="display:none"/><path class="secondary" style="display:none"/><path class="primary" style="display:none"/><path class="secondary" style="display:none"/><path class="primary" style="display:none"/><path class="primary" style="display:none"/><path class="secondary" style="display:none"/><path class="primary" style="display:none"/><path class="secondary" style="display:none"/></g><g clip-path="url(#d)" style="display:none"><path class="primary" style="display:none"/><path class="secondary" style="display:none"/><path class="primary" style="display:none"/><path class="secondary" style="display:none"/><path class="primary" style="display:none"/><path class="primary" style="display:none"/><path class="secondary" style="display:none"/><path class="primary" style="display:none"/><path class="secondary" style="display:none"/></g><g clip-path="url(#e)" style="display:none"><path class="primary" style="display:none"/><path class="secondary" style="display:none"/><path class="primary" style="display:none"/><path class="secondary" style="display:none"/><path class="primary" style="display:none"/><path class="primary" style="display:none"/><path class="secondary" style="display:none"/><path class="primary" style="display:none"/><path class="secondary" style="display:none"/></g><g clip-path="url(#f)" style="display:none"><path class="primary" style="display:none"/><path class="secondary" style="display:none"/><path class="primary" style="display:none"/><path class="secondary" style="display:none"/><path class="primary" style="display:none"/><path class="primary" style="display:none"/><path class="secondary" style="display:none"/><path class="primary" style="display:none"/><path class="secondary" style="display:none"/></g></g><g clip-path="url(#g)" style="display:block"><g clip-path="url(#h)" style="display:block" transform="translate(-93.5 93.5)"><path stroke="#121331" stroke-linecap="round" stroke-linejoin="round" stroke-width="12" d="M66.716 66.716V-66.716H-66.716V66.716H66.716z" class="primary" style="display:block" transform="translate(215 215)"/><path stroke="#121331" stroke-dasharray="0 0" stroke-linecap="round" stroke-linejoin="round" stroke-width="12" d="M0 0" class="primary" style="display:block" transform="translate(215 215.122)"/><path stroke="#08A88A" stroke-linecap="round" stroke-linejoin="round" stroke-width="12" d="M.897-40.03H40.03v80.06s0 0 0 0h-80.06v-80.06H.897" class="secondary" style="display:block" transform="translate(215 215)"/><path class="primary" style="display:none"/><path class="secondary" style="display:none"/><path stroke="#08A88A" stroke-dasharray="0 0" stroke-linecap="round" stroke-linejoin="round" stroke-width="12" d="M0 0" class="secondary" style="display:block" transform="translate(215 215.122)"/><path class="primary" style="display:none"/><path class="secondary" style="display:none"/><path class="secondary" style="display:none"/><path class="primary" style="display:none"/></g><g clip-path="url(#i)" style="display:block" transform="rotate(-90 121.75 215.25)"><path stroke="#121331" stroke-linecap="round" stroke-linejoin="round" stroke-width="12" d="M66.716 66.716V-66.716H-66.716V66.716H66.716z" class="primary" style="display:block" transform="translate(215 215)"/><path stroke="#121331" stroke-dasharray="0 0" stroke-linecap="round" stroke-linejoin="round" stroke-width="12" d="M0 0" class="primary" style="display:block" transform="translate(215 215.122)"/><path stroke="#08A88A" stroke-linecap="round" stroke-linejoin="round" stroke-width="12" d="M.897-40.03H40.03v80.06s0 0 0 0h-80.06v-80.06H.897" class="secondary" style="display:block" transform="translate(215 215)"/><path class="primary" style="display:none"/><path class="secondary" style="display:none"/><path stroke="#08A88A" stroke-dasharray="0 0" stroke-linecap="round" stroke-linejoin="round" stroke-width="12" d="M0 0" class="secondary" style="display:block" transform="translate(215 215.122)"/><path class="primary" style="display:none"/><path class="secondary" style="display:none"/><path class="secondary" style="display:none"/><path class="primary" style="display:none"/></g><g clip-path="url(#j)" style="display:block" transform="rotate(180 261.5 168.5)"><path stroke="#121331" stroke-linecap="round" stroke-linejoin="round" stroke-width="12" d="M66.716 66.716V-66.716H-66.716V66.716H66.716z" class="primary" style="display:block" transform="translate(215 215)"/><path stroke="#121331" stroke-dasharray="0 0" stroke-linecap="round" stroke-linejoin="round" stroke-width="12" d="M0 0" class="primary" style="display:block" transform="translate(215 215.122)"/><path stroke="#08A88A" stroke-linecap="round" stroke-linejoin="round" stroke-width="12" d="M.897-40.03H40.03v80.06s0 0 0 0h-80.06v-80.06H.897" class="secondary" style="display:block" transform="translate(215 215)"/><path class="primary" style="display:none"/><path class="secondary" style="display:none"/><path stroke="#08A88A" stroke-dasharray="0 0" stroke-linecap="round" stroke-linejoin="round" stroke-width="12" d="M0 0" class="secondary" style="display:block" transform="translate(215 215.122)"/><path class="primary" style="display:none"/><path class="secondary" style="display:none"/><path class="secondary" style="display:none"/><path class="primary" style="display:none"/></g><g clip-path="url(#k)" style="display:block"><path stroke="#121331" stroke-dasharray="0 0" stroke-linecap="round" stroke-linejoin="round" stroke-width="12" d="M-40.028 13.273v53.199m80.041-53.331.084-53.669h-80.125v27.668" class="primary" style="display:block" transform="translate(308.403 308.403)"/><path stroke="#121331" stroke-dasharray="0 0" stroke-linecap="round" stroke-linejoin="round" stroke-width="12" d="m66.692-39.811-.095 106.283h-80v-79.875H13.66v53h25.703" class="primary" style="display:block" transform="translate(308.403 308.403)"/><path stroke="#121331" stroke-dasharray="0 0" stroke-linecap="round" stroke-linejoin="round" stroke-width="12" d="M-66.716 66.472V-66.716H66.089M0 0" class="primary" style="display:block" transform="translate(308.403 308.403)"/><path class="primary" style="display:none"/><path class="primary" style="display:none"/><path class="primary" style="display:none"/><path class="primary" style="display:none"/></g></g></g></svg>